<?xml version="1.0" encoding="UTF-8"?><svg id="_レイヤー_2" xmlns="http://www.w3.org/2000/svg" viewBox="0 0 115.63 94.36"><defs><style>.cls-1{fill:#8f5828;}</style></defs><g id="_レイヤー_1-2"><g><g><path class="cls-1" d="M84.15,.44c-1.02,.47-1.98,1.42-2.56,2.51-.49,.91-.45,3.09,.08,4.1,.54,1.03,1.52,1.99,2.48,2.43,.96,.44,2.95,.48,3.93,.07,1.09-.46,2.31-1.77,2.76-2.95,.48-1.3,.48-2.07-.01-3.39-1-2.67-4.12-3.97-6.68-2.78h0Z"/><path class="cls-1" d="M60.62,2.65v2.09l1.01,.61c.57,.33,1.32,.78,1.7,1,.37,.21,1.52,.86,2.52,1.45,5.19,2.99,8.72,5.03,10.17,5.85,.42,.25,1.83,1.05,3.1,1.79l2.33,1.34,.04,18.43,.05,18.43h-30.41v-10.95c0-6.02-.04-10.94-.1-10.94-.1,0-2.28,1.26-4.69,2.7l-1.03,.62v18.57h-13.36V24.81l.72-.43c.4-.24,1.64-.96,2.76-1.6,1.12-.64,2.09-1.26,2.17-1.38,.22-.3,.18-3.21-.02-3.21-.1,0-.94,.44-1.89,.98-.94,.54-3.5,2.01-5.69,3.28l-3.96,2.28-.06,15.9-.04,15.9h62.95v-19.83c0-15.63-.05-19.88-.24-20.03-.14-.1-1.71-1.04-3.54-2.08-6.43-3.7-9.19-5.29-11.23-6.46-.32-.19-2.58-1.48-5.03-2.91-2.45-1.42-4.94-2.85-5.52-3.2-1.43-.86-2.51-1.46-2.61-1.46-.05,0-.1,.94-.1,2.08h0Z"/><path class="cls-1" d="M26.53,13.57c-.61,.25-1.51,1.1-1.86,1.76-.15,.29-.28,.97-.28,1.51,0,1.99,1.49,3.49,3.49,3.49,.99,0,1.71-.28,2.4-.94,.8-.75,1.08-1.43,1.08-2.54,0-2.04-1.49-3.51-3.54-3.48-.45,0-1.03,.1-1.3,.21h0Z"/><polygon class="cls-1" points="51.37 24.92 51.41 28.16 54.67 28.22 57.91 28.26 57.91 24.97 57.91 21.68 54.62 21.68 51.31 21.68 51.37 24.92 51.37 24.92"/><polygon class="cls-1" points="61.59 24.97 61.59 28.26 64.83 28.22 68.08 28.16 68.12 24.92 68.18 21.68 64.88 21.68 61.59 21.68 61.59 24.97 61.59 24.97"/><path class="cls-1" d="M24.41,69.76c-.41,.88-1.86,3.91-3.19,6.72-1.34,2.81-2.44,5.15-2.44,5.18,0,.03,.48,.06,1.08,.06h1.07l.9-1.84,.89-1.84h5.13l.87,1.84,.88,1.84h1.56c.87,0,1.56-.09,1.56-.2,0-.19-.34-.97-2.04-4.65-.55-1.22-1.56-3.4-2.23-4.84-.65-1.43-1.33-2.9-1.49-3.24-.26-.56-.38-.63-1.06-.63h-.76l-.74,1.6h0Zm1.94,4.88c.5,1.1,.86,2.07,.8,2.12-.15,.15-3.72,.15-3.72,0,0-.22,1.83-4.15,1.94-4.15,.04,0,.5,.92,.98,2.03h0Z"/><path class="cls-1" d="M50,74.74c-1.71,3.62-3.12,6.68-3.12,6.79,0,.13,.37,.18,1.02,.14l1.02-.06,.86-1.79,.86-1.79h5.16l.85,1.84,.85,1.84h1.56c1.04,0,1.56-.07,1.56-.22,0-.25-1.06-2.61-4.8-10.73l-1.16-2.52-.77-.05-.77-.06-3.12,6.6h0Zm5.1,1.74c.12,.38,.06,.39-1.83,.39-1.07,0-1.95-.04-1.95-.1,0-.07,.45-1.04,.98-2.18l.99-2.08,.84,1.78c.47,.99,.89,1.96,.97,2.18h0Z"/><path class="cls-1" d="M80.17,72.36c-1.09,2.33-2.55,5.36-3.22,6.75-.68,1.39-1.22,2.54-1.22,2.57,0,.03,.49,.03,1.1,0l1.11-.06,.86-1.79,.87-1.79h5.18l.86,1.84,.86,1.84h1.55c1.05,0,1.55-.07,1.55-.22,0-.23-.7-1.8-2.82-6.36-.67-1.44-1.65-3.58-2.18-4.75l-.98-2.13-.76-.05-.76-.06-2,4.22h0Zm3.19,2.37c.48,1.01,.82,1.89,.77,1.97-.14,.24-3.75,.22-3.75-.01,0-.35,1.82-3.89,1.98-3.84,.09,.03,.54,.86,1.01,1.88h0Z"/><path class="cls-1" d="M0,68.51c0,.08,.96,2.58,2.14,5.56,1.18,2.98,2.35,5.94,2.6,6.57,.42,1.09,.49,1.17,1.12,1.22,.83,.08,.8,.14,2.05-3.2,1.53-4.04,1.33-3.97,2.51-.98q1.66,4.22,2.41,4.22c.65,0,.67-.03,1.36-1.79,.38-.99,1.53-3.91,2.54-6.5,1.03-2.6,1.86-4.84,1.86-5,0-.23-.22-.28-1-.23l-1.02,.06-.79,2.03c-.45,1.13-1.14,2.91-1.54,3.98-.41,1.06-.81,1.99-.86,2.07-.06,.07-.86-1.73-1.77-4.03-.9-2.28-1.69-4.15-1.73-4.15-.1,0-.61,1.3-2.12,5.42-.29,.79-.71,1.83-.9,2.28l-.38,.82-1.65-4.26-1.64-4.26H1.6c-.87,0-1.6,.07-1.6,.16H0Z"/><polygon class="cls-1" points="33.51 68.93 33.51 69.51 35.82 69.51 38.15 69.51 38.15 75.61 38.15 81.72 39.8 81.72 41.45 81.72 41.45 75.61 41.45 69.51 43.67 69.51 45.9 69.51 45.9 68.93 45.9 68.35 39.7 68.35 33.51 68.35 33.51 68.93 33.51 68.93"/><path class="cls-1" d="M62.41,74.99l.04,6.63,1.03,.06,1.01,.06,.04-4.55,.05-4.55,2.23,2.53c1.22,1.4,3.04,3.46,4.03,4.6,1.69,1.91,1.87,2.05,2.52,2.05h.71l.04-6.74,.06-6.72h-2.14l-.04,4.15-.04,4.16-3.73-4.16-3.72-4.15h-2.13l.05,6.63h0Z"/><path class="cls-1" d="M91.46,74.99l.04,6.63h3.88c4.13,0,5.03-.16,6.36-1.14,.63-.47,1.3-1.77,1.3-2.54,0-.99-.74-2.18-1.65-2.72l-.85-.5,.86-.84c.84-.82,.86-.85,.86-2.05s-.03-1.24-.84-2.02c-1.27-1.22-2.38-1.46-6.58-1.46h-3.43l.06,6.63h0Zm6.95-4.53c.6,.68,.74,1.73,.33,2.62-.3,.67-1.54,1.12-2.88,1.05l-1.06-.07-.06-2.2-.06-2.21,1.6,.09c1.49,.09,1.61,.14,2.14,.71h0Zm.04,5.43c.75,.51,1.07,1.1,1.08,2.05,0,1.54-1.03,2.26-3.29,2.3l-1.45,.03-.06-2.38-.06-2.37h1.6c1.27,0,1.74,.09,2.17,.38h0Z"/><polygon class="cls-1" points="105.74 75.04 105.74 81.72 110.68 81.72 115.63 81.72 115.63 81.04 115.63 80.36 112.33 80.36 109.03 80.36 109.03 77.75 109.03 75.15 111.69 75.09 114.36 75.04 114.42 74.4 114.48 73.77 111.76 73.77 109.03 73.77 109.03 71.64 109.03 69.51 112.33 69.51 115.63 69.51 115.63 68.93 115.63 68.35 110.68 68.35 105.74 68.35 105.74 75.04 105.74 75.04"/></g><g><path class="cls-1" d="M34.06,88.46c.6,.33,.92,.57,1.39,1.05l-.63,.72c-.43-.48-.7-.69-1.4-1.11l.63-.66Zm1.16,2.84c-.24,1.05-.41,1.58-.69,2.3-.04,.08-.12,.28-.26,.59l-.8-.71c.11-.12,.2-.3,.35-.62,.26-.56,.44-1.11,.66-2.08l.74,.52Zm-.84-5.05c.58,.39,.88,.64,1.3,1.14l-.69,.68c-.41-.51-.59-.69-1.27-1.2l.66-.62Zm6.11,.56c.48,0,.73,0,1-.04v.94c-.28-.04-.57-.04-.89-.04h-.13v.62h.24c.39,0,.6,0,.77-.04v.86c-.26-.04-.49-.04-.78-.04h-.22v.78c0,.19,0,.43,.03,.56-.2-.02-.31-.02-.64-.02h-1.71c-.25,0-.49,0-.62,.02,0-.13,.02-.37,.02-.56v-.77h-.86c-.02,1.31-.11,2.49-.26,3.27-.17,.89-.36,1.44-.7,2.01-.26-.32-.43-.45-.8-.66,.35-.56,.53-1.09,.67-1.96,.1-.61,.15-1.18,.17-1.96,.02-.76,.04-1.66,.04-1.82,0-.43-.02-.78-.04-1.16,.22,.04,.44,.04,.9,.04h1.45c0-.29-.02-.46-.04-.65h1.02c-.03,.2-.04,.34-.04,.65h1.46Zm.6,4.49c-.07,.1-.09,.11-.17,.23-.39,.53-.81,1-1.16,1.32,.56,.26,1.21,.43,1.92,.54-.21,.33-.31,.52-.43,.92-.95-.23-1.56-.47-2.26-.88-.7,.43-1.3,.66-2.33,.89-.11-.39-.19-.58-.41-.87,.88-.14,1.44-.3,1.98-.57-.46-.41-.74-.74-1.04-1.25-.16,0-.3,.02-.44,.04v-.87c.26,.04,.41,.04,.73,.04h2.39c.3,0,.54,0,.68-.03l.54,.5Zm-3.54-3.02v-.62h-.85v.62h.85Zm.63,3.34c.2,.29,.46,.54,.8,.79,.32-.24,.49-.41,.8-.79h-1.6Zm1.41-3.34v-.62h-1.17v.62h1.17Zm-1.17,1.35h1.17v-.57h-1.17v.57Z"/><path class="cls-1" d="M47,89.43c.38,0,.59,0,.76-.04v.97c-.19-.04-.42-.04-.71-.04h-2.95c-.43,0-.63,0-.88,.04v-.97c.24,.04,.44,.04,.89,.04h1.74c.21-.49,.34-.9,.46-1.44l.91,.23c-.12,.42-.27,.8-.47,1.21h.26Zm-.12-2.38c.4,0,.59,0,.8-.04v.95c-.18-.04-.36-.04-.74-.04h-2.82c-.33,0-.53,0-.72,.04v-.95c.2,.04,.41,.04,.84,.04h.9v-.25c0-.25-.02-.44-.05-.62h1.05c-.03,.18-.04,.36-.04,.62v.25h.79Zm-2.22,7.24h-.95c.03-.25,.04-.46,.04-.83v-1.91c0-.36,0-.52-.03-.72,.2,.02,.38,.03,.7,.03h2.27c.36,0,.51,0,.64-.03-.02,.16-.03,.27-.03,.65v2.14c0,.31,0,.47,.04,.66h-.97v-.5h-1.72v.51Zm.14-6.37c.2,.41,.33,.74,.46,1.23l-.87,.26c-.12-.53-.22-.83-.41-1.23l.83-.26Zm-.14,5.01h1.73v-1.23h-1.73v1.23Zm6.71-5.93c-.06,.11-.1,.19-.18,.39-.3,.78-.58,1.39-.95,2.1,.48,.56,.68,.85,.85,1.28,.16,.38,.25,.83,.25,1.22,0,.56-.23,.96-.63,1.1-.22,.09-.47,.11-.9,.11-.15,0-.23,0-.44-.02-.02-.46-.06-.67-.2-.96,.23,.04,.41,.05,.66,.05,.44,0,.58-.1,.58-.38,0-.37-.1-.76-.28-1.14-.2-.41-.4-.66-.92-1.15,.51-.94,.78-1.57,.97-2.31h-1.22v6c0,.48,.02,.78,.06,1.03h-1.04c.04-.28,.05-.63,.05-1v-6.19c0-.26,0-.5-.04-.74,.24,.03,.43,.04,.72,.04h1.52c.34,0,.53,0,.7-.04l.43,.61Z"/><path class="cls-1" d="M57.91,93.72c-1.36,.28-2.32,.45-3.25,.58-.23,.03-.26,.04-.43,.06l-.16-.89h.09c.26,0,.6-.04,1.14-.11v-.6c-.63,.33-1.2,.56-2.04,.82-.15-.36-.23-.51-.45-.79,1.15-.23,2.11-.62,2.73-1.08h-1.67c-.51,0-.66,0-.94,.04v-.85c.26,.03,.47,.04,.98,.04h2.75v-.15c0-.09,0-.23-.02-.3-.19,0-.26,0-.48-.02-.02-.21-.06-.4-.14-.59,.18,.03,.35,.04,.46,.04,.11,0,.15-.04,.15-.15v-.27h-.85v.46c0,.28,0,.48,.03,.7h-.91c.03-.26,.04-.38,.04-.7v-.46h-.77v.53c0,.27,0,.35,.03,.5h-.88v-.09c.03-.15,.04-.29,.04-.46v-.66c0-.17,0-.24-.03-.5,.13,0,.39,.02,.59,.02h1.02v-.35h-1.15c-.33,0-.54,0-.79,.04v-.76c.18,.03,.28,.03,.59,.04-.21-.15-.4-.26-.66-.4,.33-.36,.54-.71,.7-1.23l.89,.18c-.07,.19-.1,.26-.17,.4h.58c0-.26-.02-.4-.04-.58h.93c-.03,.19-.04,.33-.04,.58h.85c.41,0,.58,0,.81-.04v.76c-.25-.02-.45-.03-.8-.03h-.85v.37h.96c.49,0,.64,0,.87-.04v.76c-.23-.03-.48-.04-.83-.04h-1v.35h.89c.33,0,.49,0,.7-.02,0,.11,0,.2,0,.38v.7c0,.23-.04,.35-.17,.45h.39c-.02,.19-.03,.26-.03,.44v.15h2.33c.49,0,.78,0,1-.04v.85c-.29-.04-.44-.04-.96-.04h-.35l.65,.4c-.32,.32-.58,.51-1.01,.75,.7,.33,1.12,.47,1.83,.59-.22,.3-.33,.5-.48,.88-1.15-.33-1.95-.71-2.66-1.31v.7Zm-2.98-5.91v-.37h-.93c-.1,.15-.14,.21-.26,.37h1.2Zm1.28,5.42c.87-.13,1.1-.18,1.6-.29-.46-.41-.7-.73-.92-1.22h-.19c-.16,.15-.33,.31-.5,.45v1.07Zm1.6-1.52c.17,.28,.34,.48,.68,.73,.33-.19,.67-.47,.9-.73h-1.58Zm.04-2.34c.03-.21,.04-.33,.04-.6v-1.45c0-.24-.02-.48-.04-.66h.96c-.03,.16-.04,.34-.04,.66v1.44c0,.29,0,.43,.03,.61h-.94Zm2.63,.23c0,.47-.07,.65-.3,.79-.19,.11-.48,.16-1.02,.16-.18,0-.42,0-.64-.02-.04-.3-.11-.59-.24-.84,.33,.05,.65,.08,.85,.08,.13,0,.29-.02,.34-.03,.08-.03,.11-.07,.11-.23v-2.52c0-.31-.02-.51-.04-.75h.99c-.04,.25-.04,.42-.04,.79v2.56Z"/><path class="cls-1" d="M65.44,86.42c-.1,.22-.12,.28-.2,.49q-.14,.38-.6,1.41v4.88c0,.41,.02,.77,.06,1.09h-1.06c.04-.33,.06-.63,.06-1.09v-2.51c0-.22,0-.26,.03-1-.31,.41-.53,.69-.85,1.01-.12-.41-.25-.66-.47-1.03,.65-.59,1.22-1.42,1.67-2.43,.19-.46,.32-.82,.37-1.16l.98,.34Zm1.44,1.89c-.39,.78-.85,1.47-1.44,2.15-.21-.36-.33-.52-.63-.83,.67-.69,1.1-1.36,1.48-2.25,.22-.53,.35-.97,.4-1.28l1,.29c-.09,.21-.11,.29-.18,.47-.13,.37-.14,.4-.22,.59h2.4c.43,0,.7-.02,.95-.05v.95c-.26-.03-.56-.04-.95-.04h-1.67v1.13h1.44c.37,0,.61-.02,.87-.05v.95c-.28-.04-.55-.05-.88-.05h-1.43v1.13h1.44c.38,0,.62,0,.88-.05v.96c-.29-.04-.55-.05-.88-.05h-1.44v1.01c0,.53,.02,.81,.06,1.06h-1.07c.04-.26,.05-.52,.05-1.06v-4.97h-.17Z"/><path class="cls-1" d="M76.03,90.45c0,.39,0,.48,.02,.7-.09,0-.38,0-.86-.02h-1.46c-.07,1.47-.26,2.23-.78,3.14-.26-.33-.46-.49-.78-.7,.55-.93,.7-1.83,.7-4.21,0-.59,0-.9-.04-1.22,.29,.02,.51,.03,.93,.03h1.43c.41,0,.62,0,.89-.03-.02,.19-.03,.45-.03,.79v1.52Zm-3.56-3.91c.26,.04,.49,.04,.95,.04h1.9c.52,0,.73,0,.96-.04v.99c-.23-.04-.46-.04-.92-.04h-2c-.41,0-.65,0-.9,.04v-.99Zm2.65,3.76v-1.3h-1.37v.63c0,.33,0,.41,0,.67h1.38Zm2.41-.5c-.05,1.07-.17,1.77-.39,2.41-.18,.53-.43,1-.77,1.43-.13,.19-.26,.33-.56,.66-.24-.33-.42-.51-.73-.73,.68-.63,1.03-1.19,1.25-1.95,.19-.67,.28-1.66,.28-3.26,0-.83,0-1.1-.04-1.39,1.08,0,2.58-.34,3.29-.74l.5,.9c-.16,.04-.21,.05-.41,.11-.91,.28-1.48,.41-2.41,.54v1.1h2c.41,0,.6,0,.85-.05v1.02c-.24-.04-.44-.04-.78-.04h-.13v3.49c0,.46,0,.68,.05,.95h-1.04c.04-.28,.05-.53,.05-.96v-3.48h-1.04Z"/></g></g></g></svg>